solid OpenSCAD_Model
  facet normal 4.54131e-07 1 -4.46648e-10
    outer loop
      vertex 4 2 2
      vertex 5.06541 2 17.6667
      vertex 6.1 2 2
    endloop
  endfacet
  facet normal 4.47563e-07 1 1.36222e-14
    outer loop
      vertex 5.06541 2 17.6667
      vertex 4 2 2
      vertex 4 2 17.6667
    endloop
  endfacet
  facet normal 0 -1 0
    outer loop
      vertex 4 25.8 2
      vertex 6.1 25.8 17.6667
      vertex 4 25.8 17.6667
    endloop
  endfacet
  facet normal 0 -1 -0
    outer loop
      vertex 6.1 25.8 17.6667
      vertex 4 25.8 2
      vertex 6.1 25.8 2
    endloop
  endfacet
  facet normal -1 0 0
    outer loop
      vertex 6.1 2 2
      vertex 6.1 25.8 17.6667
      vertex 6.1 25.8 2
    endloop
  endfacet
  facet normal -1 -0 0
    outer loop
      vertex 6.1 25.8 17.6667
      vertex 6.1 2 2
      vertex 6.1 2 17.6667
    endloop
  endfacet
  facet normal 4.60894e-07 1 0
    outer loop
      vertex 6.1 2 17.6667
      vertex 6.1 2 2
      vertex 5.06541 2 17.6667
    endloop
  endfacet
  facet normal 1 -0 3.04364e-08
    outer loop
      vertex 4 2 17.6667
      vertex 4 25.8 2
      vertex 4 25.8 17.6667
    endloop
  endfacet
  facet normal 1 0 3.04364e-08
    outer loop
      vertex 4 25.8 2
      vertex 4 2 17.6667
      vertex 4 2 2
    endloop
  endfacet
  facet normal -0 0 1
    outer loop
      vertex 4 25.8 2
      vertex 6.1 2 2
      vertex 6.1 25.8 2
    endloop
  endfacet
  facet normal 0 0 1
    outer loop
      vertex 6.1 2 2
      vertex 4 25.8 2
      vertex 4 2 2
    endloop
  endfacet
  facet normal 4.54131e-07 1 -4.46634e-10
    outer loop
      vertex 8 2 2
      vertex 9.06541 2 17.6667
      vertex 10.1 2 2
    endloop
  endfacet
  facet normal 4.47563e-07 1 1.36222e-14
    outer loop
      vertex 9.06541 2 17.6667
      vertex 8 2 2
      vertex 8 2 17.6667
    endloop
  endfacet
  facet normal 0 -1 0
    outer loop
      vertex 8 25.8 2
      vertex 10.1 25.8 17.6667
      vertex 8 25.8 17.6667
    endloop
  endfacet
  facet normal 0 -1 -0
    outer loop
      vertex 10.1 25.8 17.6667
      vertex 8 25.8 2
      vertex 10.1 25.8 2
    endloop
  endfacet
  facet normal -1 0 0
    outer loop
      vertex 10.1 2 2
      vertex 10.1 25.8 17.6667
      vertex 10.1 25.8 2
    endloop
  endfacet
  facet normal -1 -0 0
    outer loop
      vertex 10.1 25.8 17.6667
      vertex 10.1 2 2
      vertex 10.1 2 17.6667
    endloop
  endfacet
  facet normal 4.60894e-07 1 0
    outer loop
      vertex 10.1 2 17.6667
      vertex 10.1 2 2
      vertex 9.06541 2 17.6667
    endloop
  endfacet
  facet normal 1 -0 3.04364e-08
    outer loop
      vertex 8 2 17.6667
      vertex 8 25.8 2
      vertex 8 25.8 17.6667
    endloop
  endfacet
  facet normal 1 0 3.04364e-08
    outer loop
      vertex 8 25.8 2
      vertex 8 2 17.6667
      vertex 8 2 2
    endloop
  endfacet
  facet normal -0 0 1
    outer loop
      vertex 8 25.8 2
      vertex 10.1 2 2
      vertex 10.1 25.8 2
    endloop
  endfacet
  facet normal 0 0 1
    outer loop
      vertex 10.1 2 2
      vertex 8 25.8 2
      vertex 8 2 2
    endloop
  endfacet
  facet normal 4.54131e-07 1 -4.46634e-10
    outer loop
      vertex 12 2 2
      vertex 13.0654 2 17.6667
      vertex 14.1 2 2
    endloop
  endfacet
  facet normal 4.47563e-07 1 0
    outer loop
      vertex 13.0654 2 17.6667
      vertex 12 2 2
      vertex 12 2 17.6667
    endloop
  endfacet
  facet normal 0 -1 0
    outer loop
      vertex 12 25.8 2
      vertex 14.1 25.8 17.6667
      vertex 12 25.8 17.6667
    endloop
  endfacet
  facet normal 0 -1 -0
    outer loop
      vertex 14.1 25.8 17.6667
      vertex 12 25.8 2
      vertex 14.1 25.8 2
    endloop
  endfacet
  facet normal -1 0 0
    outer loop
      vertex 14.1 2 2
      vertex 14.1 25.8 17.6667
      vertex 14.1 25.8 2
    endloop
  endfacet
  facet normal -1 -0 0
    outer loop
      vertex 14.1 25.8 17.6667
      vertex 14.1 2 2
      vertex 14.1 2 17.6667
    endloop
  endfacet
  facet normal 4.60894e-07 1 0
    outer loop
      vertex 14.1 2 17.6667
      vertex 14.1 2 2
      vertex 13.0654 2 17.6667
    endloop
  endfacet
  facet normal 1 -0 0
    outer loop
      vertex 12 2 17.6667
      vertex 12 25.8 2
      vertex 12 25.8 17.6667
    endloop
  endfacet
  facet normal 1 0 0
    outer loop
      vertex 12 25.8 2
      vertex 12 2 17.6667
      vertex 12 2 2
    endloop
  endfacet
  facet normal -0 0 1
    outer loop
      vertex 12 25.8 2
      vertex 14.1 2 2
      vertex 14.1 25.8 2
    endloop
  endfacet
  facet normal 0 0 1
    outer loop
      vertex 14.1 2 2
      vertex 12 25.8 2
      vertex 12 2 2
    endloop
  endfacet
  facet normal 4.54131e-07 1 -4.46676e-10
    outer loop
      vertex 16 2 2
      vertex 17.0654 2 17.6667
      vertex 18.1 2 2
    endloop
  endfacet
  facet normal 4.47563e-07 1 0
    outer loop
      vertex 17.0654 2 17.6667
      vertex 16 2 2
      vertex 16 2 17.6667
    endloop
  endfacet
  facet normal 0 -1 0
    outer loop
      vertex 16 25.8 2
      vertex 18.1 25.8 17.6667
      vertex 16 25.8 17.6667
    endloop
  endfacet
  facet normal 0 -1 -0
    outer loop
      vertex 18.1 25.8 17.6667
      vertex 16 25.8 2
      vertex 18.1 25.8 2
    endloop
  endfacet
  facet normal -1 0 0
    outer loop
      vertex 18.1 2 2
      vertex 18.1 25.8 17.6667
      vertex 18.1 25.8 2
    endloop
  endfacet
  facet normal -1 -0 0
    outer loop
      vertex 18.1 25.8 17.6667
      vertex 18.1 2 2
      vertex 18.1 2 17.6667
    endloop
  endfacet
  facet normal 4.60895e-07 1 0
    outer loop
      vertex 18.1 2 17.6667
      vertex 18.1 2 2
      vertex 17.0654 2 17.6667
    endloop
  endfacet
  facet normal 1 -0 0
    outer loop
      vertex 16 2 17.6667
      vertex 16 25.8 2
      vertex 16 25.8 17.6667
    endloop
  endfacet
  facet normal 1 0 0
    outer loop
      vertex 16 25.8 2
      vertex 16 2 17.6667
      vertex 16 2 2
    endloop
  endfacet
  facet normal -0 0 1
    outer loop
      vertex 16 25.8 2
      vertex 18.1 2 2
      vertex 18.1 25.8 2
    endloop
  endfacet
  facet normal 0 0 1
    outer loop
      vertex 18.1 2 2
      vertex 16 25.8 2
      vertex 16 2 2
    endloop
  endfacet
  facet normal 4.54131e-07 1 -4.46676e-10
    outer loop
      vertex 20 2 2
      vertex 21.0654 2 17.6667
      vertex 22.1 2 2
    endloop
  endfacet
  facet normal 4.47563e-07 1 0
    outer loop
      vertex 21.0654 2 17.6667
      vertex 20 2 2
      vertex 20 2 17.6667
    endloop
  endfacet
  facet normal -1 0 0
    outer loop
      vertex 22.1 2 2
      vertex 22.1 25.8 17.6667
      vertex 22.1 25.8 2
    endloop
  endfacet
  facet normal -1 -0 0
    outer loop
      vertex 22.1 25.8 17.6667
      vertex 22.1 2 2
      vertex 22.1 2 17.6667
    endloop
  endfacet
  facet normal 0 -1 0
    outer loop
      vertex 20 25.8 2
      vertex 22.1 25.8 17.6667
      vertex 20 25.8 17.6667
    endloop
  endfacet
  facet normal 0 -1 -0
    outer loop
      vertex 22.1 25.8 17.6667
      vertex 20 25.8 2
      vertex 22.1 25.8 2
    endloop
  endfacet
  facet normal 4.60895e-07 1 0
    outer loop
      vertex 22.1 2 17.6667
      vertex 22.1 2 2
      vertex 21.0654 2 17.6667
    endloop
  endfacet
  facet normal 1 0 0
    outer loop
      vertex 20 2 2
      vertex 20 14.0746 17.6667
      vertex 20 2 17.6667
    endloop
  endfacet
  facet normal 1 0 0
    outer loop
      vertex 20 14.0746 17.6667
      vertex 20 2 2
      vertex 20 25.8 2
    endloop
  endfacet
  facet normal -0 0 1
    outer loop
      vertex 20 25.8 2
      vertex 22.1 2 2
      vertex 22.1 25.8 2
    endloop
  endfacet
  facet normal 0 0 1
    outer loop
      vertex 22.1 2 2
      vertex 20 25.8 2
      vertex 20 2 2
    endloop
  endfacet
  facet normal 1 0 -0
    outer loop
      vertex 20 25.8 2
      vertex 20 25.8 17.6667
      vertex 20 14.0746 17.6667
    endloop
  endfacet
  facet normal 4.54131e-07 1 -4.46676e-10
    outer loop
      vertex 24 2 2
      vertex 25.0654 2 17.6667
      vertex 26.1 2 2
    endloop
  endfacet
  facet normal 4.47563e-07 1 0
    outer loop
      vertex 25.0654 2 17.6667
      vertex 24 2 2
      vertex 24 2 17.6667
    endloop
  endfacet
  facet normal -1 0 0
    outer loop
      vertex 26.1 2 2
      vertex 26.1 25.8 17.6667
      vertex 26.1 25.8 2
    endloop
  endfacet
  facet normal -1 -0 0
    outer loop
      vertex 26.1 25.8 17.6667
      vertex 26.1 2 2
      vertex 26.1 2 17.6667
    endloop
  endfacet
  facet normal 0 -1 0
    outer loop
      vertex 24 25.8 2
      vertex 26.1 25.8 17.6667
      vertex 24 25.8 17.6667
    endloop
  endfacet
  facet normal 0 -1 -0
    outer loop
      vertex 26.1 25.8 17.6667
      vertex 24 25.8 2
      vertex 26.1 25.8 2
    endloop
  endfacet
  facet normal 4.60895e-07 1 0
    outer loop
      vertex 26.1 2 17.6667
      vertex 26.1 2 2
      vertex 25.0654 2 17.6667
    endloop
  endfacet
  facet normal 1 0 0
    outer loop
      vertex 24 2 2
      vertex 24 14.0746 17.6667
      vertex 24 2 17.6667
    endloop
  endfacet
  facet normal 1 0 0
    outer loop
      vertex 24 14.0746 17.6667
      vertex 24 2 2
      vertex 24 25.8 2
    endloop
  endfacet
  facet normal -0 0 1
    outer loop
      vertex 24 25.8 2
      vertex 26.1 2 2
      vertex 26.1 25.8 2
    endloop
  endfacet
  facet normal 0 0 1
    outer loop
      vertex 26.1 2 2
      vertex 24 25.8 2
      vertex 24 2 2
    endloop
  endfacet
  facet normal 1 0 -0
    outer loop
      vertex 24 25.8 2
      vertex 24 25.8 17.6667
      vertex 24 14.0746 17.6667
    endloop
  endfacet
  facet normal 4.54131e-07 1 -4.46676e-10
    outer loop
      vertex 28 2 2
      vertex 29.0654 2 17.6667
      vertex 30.1 2 2
    endloop
  endfacet
  facet normal 4.47563e-07 1 0
    outer loop
      vertex 29.0654 2 17.6667
      vertex 28 2 2
      vertex 28 2 17.6667
    endloop
  endfacet
  facet normal -1 0 0
    outer loop
      vertex 30.1 2 2
      vertex 30.1 25.8 17.6667
      vertex 30.1 25.8 2
    endloop
  endfacet
  facet normal -1 -0 0
    outer loop
      vertex 30.1 25.8 17.6667
      vertex 30.1 2 2
      vertex 30.1 2 17.6667
    endloop
  endfacet
  facet normal 0 -1 0
    outer loop
      vertex 28 25.8 2
      vertex 30.1 25.8 17.6667
      vertex 28 25.8 17.6667
    endloop
  endfacet
  facet normal 0 -1 -0
    outer loop
      vertex 30.1 25.8 17.6667
      vertex 28 25.8 2
      vertex 30.1 25.8 2
    endloop
  endfacet
  facet normal 4.60895e-07 1 0
    outer loop
      vertex 30.1 2 17.6667
      vertex 30.1 2 2
      vertex 29.0654 2 17.6667
    endloop
  endfacet
  facet normal 1 0 0
    outer loop
      vertex 28 2 2
      vertex 28 14.0746 17.6667
      vertex 28 2 17.6667
    endloop
  endfacet
  facet normal 1 0 0
    outer loop
      vertex 28 14.0746 17.6667
      vertex 28 2 2
      vertex 28 25.8 2
    endloop
  endfacet
  facet normal -0 0 1
    outer loop
      vertex 28 25.8 2
      vertex 30.1 2 2
      vertex 30.1 25.8 2
    endloop
  endfacet
  facet normal 0 0 1
    outer loop
      vertex 30.1 2 2
      vertex 28 25.8 2
      vertex 28 2 2
    endloop
  endfacet
  facet normal 1 0 -0
    outer loop
      vertex 28 25.8 2
      vertex 28 25.8 17.6667
      vertex 28 14.0746 17.6667
    endloop
  endfacet
  facet normal 4.54131e-07 1 -4.4662e-10
    outer loop
      vertex 32 2 2
      vertex 33.0654 2 17.6667
      vertex 34.1 2 2
    endloop
  endfacet
  facet normal 4.47563e-07 1 0
    outer loop
      vertex 33.0654 2 17.6667
      vertex 32 2 2
      vertex 32 2 17.6667
    endloop
  endfacet
  facet normal -1 0 0
    outer loop
      vertex 34.1 2 2
      vertex 34.1 25.8 17.6667
      vertex 34.1 25.8 2
    endloop
  endfacet
  facet normal -1 -0 0
    outer loop
      vertex 34.1 25.8 17.6667
      vertex 34.1 2 2
      vertex 34.1 2 17.6667
    endloop
  endfacet
  facet normal 0 -1 0
    outer loop
      vertex 32 25.8 2
      vertex 34.1 25.8 17.6667
      vertex 32 25.8 17.6667
    endloop
  endfacet
  facet normal 0 -1 -0
    outer loop
      vertex 34.1 25.8 17.6667
      vertex 32 25.8 2
      vertex 34.1 25.8 2
    endloop
  endfacet
  facet normal 4.60894e-07 1 0
    outer loop
      vertex 34.1 2 17.6667
      vertex 34.1 2 2
      vertex 33.0654 2 17.6667
    endloop
  endfacet
  facet normal 1 0 0
    outer loop
      vertex 32 2 2
      vertex 32 14.0746 17.6667
      vertex 32 2 17.6667
    endloop
  endfacet
  facet normal 1 0 0
    outer loop
      vertex 32 14.0746 17.6667
      vertex 32 2 2
      vertex 32 25.8 2
    endloop
  endfacet
  facet normal -0 0 1
    outer loop
      vertex 32 25.8 2
      vertex 34.1 2 2
      vertex 34.1 25.8 2
    endloop
  endfacet
  facet normal 0 0 1
    outer loop
      vertex 34.1 2 2
      vertex 32 25.8 2
      vertex 32 2 2
    endloop
  endfacet
  facet normal 1 0 -0
    outer loop
      vertex 32 25.8 2
      vertex 32 25.8 17.6667
      vertex 32 14.0746 17.6667
    endloop
  endfacet
  facet normal 4.54131e-07 1 -4.4662e-10
    outer loop
      vertex 36 2 2
      vertex 37.0654 2 17.6667
      vertex 38.1 2 2
    endloop
  endfacet
  facet normal 4.47563e-07 1 0
    outer loop
      vertex 37.0654 2 17.6667
      vertex 36 2 2
      vertex 36 2 17.6667
    endloop
  endfacet
  facet normal -1 0 0
    outer loop
      vertex 38.1 2 2
      vertex 38.1 25.8 17.6667
      vertex 38.1 25.8 2
    endloop
  endfacet
  facet normal -1 -0 0
    outer loop
      vertex 38.1 25.8 17.6667
      vertex 38.1 2 2
      vertex 38.1 2 17.6667
    endloop
  endfacet
  facet normal 0 -1 0
    outer loop
      vertex 36 25.8 2
      vertex 38.1 25.8 17.6667
      vertex 36 25.8 17.6667
    endloop
  endfacet
  facet normal 0 -1 -0
    outer loop
      vertex 38.1 25.8 17.6667
      vertex 36 25.8 2
      vertex 38.1 25.8 2
    endloop
  endfacet
  facet normal 4.60894e-07 1 0
    outer loop
      vertex 38.1 2 17.6667
      vertex 38.1 2 2
      vertex 37.0654 2 17.6667
    endloop
  endfacet
  facet normal 1 0 0
    outer loop
      vertex 36 2 2
      vertex 36 14.0746 17.6667
      vertex 36 2 17.6667
    endloop
  endfacet
  facet normal 1 0 0
    outer loop
      vertex 36 14.0746 17.6667
      vertex 36 2 2
      vertex 36 25.8 2
    endloop
  endfacet
  facet normal -0 0 1
    outer loop
      vertex 36 25.8 2
      vertex 38.1 2 2
      vertex 38.1 25.8 2
    endloop
  endfacet
  facet normal 0 0 1
    outer loop
      vertex 38.1 2 2
      vertex 36 25.8 2
      vertex 36 2 2
    endloop
  endfacet
  facet normal 1 0 -0
    outer loop
      vertex 36 25.8 2
      vertex 36 25.8 17.6667
      vertex 36 14.0746 17.6667
    endloop
  endfacet
  facet normal 4.54131e-07 1 -4.4662e-10
    outer loop
      vertex 40 2 2
      vertex 41.0654 2 17.6667
      vertex 42.1 2 2
    endloop
  endfacet
  facet normal 4.47563e-07 1 0
    outer loop
      vertex 41.0654 2 17.6667
      vertex 40 2 2
      vertex 40 2 17.6667
    endloop
  endfacet
  facet normal -1 0 0
    outer loop
      vertex 42.1 2 2
      vertex 42.1 25.8 17.6667
      vertex 42.1 25.8 2
    endloop
  endfacet
  facet normal -1 -0 0
    outer loop
      vertex 42.1 25.8 17.6667
      vertex 42.1 2 2
      vertex 42.1 2 17.6667
    endloop
  endfacet
  facet normal 0 -1 0
    outer loop
      vertex 40 25.8 2
      vertex 42.1 25.8 17.6667
      vertex 40 25.8 17.6667
    endloop
  endfacet
  facet normal 0 -1 -0
    outer loop
      vertex 42.1 25.8 17.6667
      vertex 40 25.8 2
      vertex 42.1 25.8 2
    endloop
  endfacet
  facet normal 4.60894e-07 1 0
    outer loop
      vertex 42.1 2 17.6667
      vertex 42.1 2 2
      vertex 41.0654 2 17.6667
    endloop
  endfacet
  facet normal 1 0 0
    outer loop
      vertex 40 2 2
      vertex 40 14.0746 17.6667
      vertex 40 2 17.6667
    endloop
  endfacet
  facet normal 1 0 0
    outer loop
      vertex 40 14.0746 17.6667
      vertex 40 2 2
      vertex 40 25.8 2
    endloop
  endfacet
  facet normal -0 0 1
    outer loop
      vertex 40 25.8 2
      vertex 42.1 2 2
      vertex 42.1 25.8 2
    endloop
  endfacet
  facet normal 0 0 1
    outer loop
      vertex 42.1 2 2
      vertex 40 25.8 2
      vertex 40 2 2
    endloop
  endfacet
  facet normal 1 0 -0
    outer loop
      vertex 40 25.8 2
      vertex 40 25.8 17.6667
      vertex 40 14.0746 17.6667
    endloop
  endfacet
  facet normal -1 0 0
    outer loop
      vertex 0 0 0
      vertex 0 27.8 17.6667
      vertex 0 27.8 0
    endloop
  endfacet
  facet normal -1 -0 0
    outer loop
      vertex 0 27.8 17.6667
      vertex 0 0 0
      vertex 0 0 17.6667
    endloop
  endfacet
  facet normal 0 0 1
    outer loop
      vertex 45 27.8 17.6667
      vertex 42.1 25.8 17.6667
      vertex 45 0 17.6667
    endloop
  endfacet
  facet normal 0 0 1
    outer loop
      vertex 45 27.8 17.6667
      vertex 40 25.8 17.6667
      vertex 42.1 25.8 17.6667
    endloop
  endfacet
  facet normal -0 0 1
    outer loop
      vertex 38.1 25.8 17.6667
      vertex 40 14.0746 17.6667
      vertex 40 25.8 17.6667
    endloop
  endfacet
  facet normal 0 0 1
    outer loop
      vertex 38.1 2 17.6667
      vertex 40 14.0746 17.6667
      vertex 38.1 25.8 17.6667
    endloop
  endfacet
  facet normal 0 0 1
    outer loop
      vertex 45 27.8 17.6667
      vertex 38.1 25.8 17.6667
      vertex 40 25.8 17.6667
    endloop
  endfacet
  facet normal 0 0 1
    outer loop
      vertex 45 27.8 17.6667
      vertex 36 25.8 17.6667
      vertex 38.1 25.8 17.6667
    endloop
  endfacet
  facet normal -0 0 1
    outer loop
      vertex 34.1 25.8 17.6667
      vertex 36 14.0746 17.6667
      vertex 36 25.8 17.6667
    endloop
  endfacet
  facet normal 0 0 1
    outer loop
      vertex 34.1 2 17.6667
      vertex 36 14.0746 17.6667
      vertex 34.1 25.8 17.6667
    endloop
  endfacet
  facet normal 0 0 1
    outer loop
      vertex 45 27.8 17.6667
      vertex 34.1 25.8 17.6667
      vertex 36 25.8 17.6667
    endloop
  endfacet
  facet normal 0 0 1
    outer loop
      vertex 45 27.8 17.6667
      vertex 32 25.8 17.6667
      vertex 34.1 25.8 17.6667
    endloop
  endfacet
  facet normal -0 0 1
    outer loop
      vertex 30.1 25.8 17.6667
      vertex 32 14.0746 17.6667
      vertex 32 25.8 17.6667
    endloop
  endfacet
  facet normal 0 0 1
    outer loop
      vertex 30.1 2 17.6667
      vertex 32 14.0746 17.6667
      vertex 30.1 25.8 17.6667
    endloop
  endfacet
  facet normal 0 0 1
    outer loop
      vertex 45 27.8 17.6667
      vertex 30.1 25.8 17.6667
      vertex 32 25.8 17.6667
    endloop
  endfacet
  facet normal 0 0 1
    outer loop
      vertex 45 27.8 17.6667
      vertex 28 25.8 17.6667
      vertex 30.1 25.8 17.6667
    endloop
  endfacet
  facet normal -0 0 1
    outer loop
      vertex 26.1 25.8 17.6667
      vertex 28 14.0746 17.6667
      vertex 28 25.8 17.6667
    endloop
  endfacet
  facet normal 0 0 1
    outer loop
      vertex 26.1 2 17.6667
      vertex 28 14.0746 17.6667
      vertex 26.1 25.8 17.6667
    endloop
  endfacet
  facet normal 0 0 1
    outer loop
      vertex 45 27.8 17.6667
      vertex 26.1 25.8 17.6667
      vertex 28 25.8 17.6667
    endloop
  endfacet
  facet normal 0 0 1
    outer loop
      vertex 45 27.8 17.6667
      vertex 24 25.8 17.6667
      vertex 26.1 25.8 17.6667
    endloop
  endfacet
  facet normal -0 0 1
    outer loop
      vertex 22.1 25.8 17.6667
      vertex 24 14.0746 17.6667
      vertex 24 25.8 17.6667
    endloop
  endfacet
  facet normal 0 0 1
    outer loop
      vertex 22.1 2 17.6667
      vertex 24 14.0746 17.6667
      vertex 22.1 25.8 17.6667
    endloop
  endfacet
  facet normal 0 0 1
    outer loop
      vertex 45 27.8 17.6667
      vertex 22.1 25.8 17.6667
      vertex 24 25.8 17.6667
    endloop
  endfacet
  facet normal -0 0 1
    outer loop
      vertex 0 27.8 17.6667
      vertex 22.1 25.8 17.6667
      vertex 45 27.8 17.6667
    endloop
  endfacet
  facet normal -0 0 1
    outer loop
      vertex 18.1 25.8 17.6667
      vertex 20 14.0746 17.6667
      vertex 20 25.8 17.6667
    endloop
  endfacet
  facet normal 0 0 1
    outer loop
      vertex 18.1 2 17.6667
      vertex 20 14.0746 17.6667
      vertex 18.1 25.8 17.6667
    endloop
  endfacet
  facet normal 0 0 1
    outer loop
      vertex 22.1 25.8 17.6667
      vertex 0 27.8 17.6667
      vertex 20 25.8 17.6667
    endloop
  endfacet
  facet normal 0 0 1
    outer loop
      vertex 20 25.8 17.6667
      vertex 0 27.8 17.6667
      vertex 18.1 25.8 17.6667
    endloop
  endfacet
  facet normal 0 0 1
    outer loop
      vertex 16 25.8 17.6667
      vertex 14.1 25.8 17.6667
      vertex 16 2 17.6667
    endloop
  endfacet
  facet normal 0 0 1
    outer loop
      vertex 18.1 25.8 17.6667
      vertex 0 27.8 17.6667
      vertex 16 25.8 17.6667
    endloop
  endfacet
  facet normal 0 0 1
    outer loop
      vertex 16 25.8 17.6667
      vertex 0 27.8 17.6667
      vertex 14.1 25.8 17.6667
    endloop
  endfacet
  facet normal 0 0 1
    outer loop
      vertex 12 25.8 17.6667
      vertex 10.1 25.8 17.6667
      vertex 12 2 17.6667
    endloop
  endfacet
  facet normal 0 0 1
    outer loop
      vertex 14.1 25.8 17.6667
      vertex 0 27.8 17.6667
      vertex 12 25.8 17.6667
    endloop
  endfacet
  facet normal 0 0 1
    outer loop
      vertex 12 25.8 17.6667
      vertex 0 27.8 17.6667
      vertex 10.1 25.8 17.6667
    endloop
  endfacet
  facet normal 0 0 1
    outer loop
      vertex 8 25.8 17.6667
      vertex 6.1 25.8 17.6667
      vertex 8 2 17.6667
    endloop
  endfacet
  facet normal 0 0 1
    outer loop
      vertex 10.1 25.8 17.6667
      vertex 0 27.8 17.6667
      vertex 8 25.8 17.6667
    endloop
  endfacet
  facet normal 0 0 1
    outer loop
      vertex 8 25.8 17.6667
      vertex 0 27.8 17.6667
      vertex 6.1 25.8 17.6667
    endloop
  endfacet
  facet normal 0 0 1
    outer loop
      vertex 4 25.8 17.6667
      vertex 0 27.8 17.6667
      vertex 4 2 17.6667
    endloop
  endfacet
  facet normal 0 0 1
    outer loop
      vertex 6.1 25.8 17.6667
      vertex 0 27.8 17.6667
      vertex 4 25.8 17.6667
    endloop
  endfacet
  facet normal -0 0 1
    outer loop
      vertex 42.1 2 17.6667
      vertex 45 0 17.6667
      vertex 42.1 25.8 17.6667
    endloop
  endfacet
  facet normal 0 0 1
    outer loop
      vertex 41.0654 2 17.6667
      vertex 45 0 17.6667
      vertex 42.1 2 17.6667
    endloop
  endfacet
  facet normal 0 0 1
    outer loop
      vertex 40 2 17.6667
      vertex 45 0 17.6667
      vertex 41.0654 2 17.6667
    endloop
  endfacet
  facet normal 0 0 1
    outer loop
      vertex 40 14.0746 17.6667
      vertex 38.1 2 17.6667
      vertex 40 2 17.6667
    endloop
  endfacet
  facet normal -0 0 1
    outer loop
      vertex 38.1 2 17.6667
      vertex 45 0 17.6667
      vertex 40 2 17.6667
    endloop
  endfacet
  facet normal 0 0 1
    outer loop
      vertex 37.0654 2 17.6667
      vertex 45 0 17.6667
      vertex 38.1 2 17.6667
    endloop
  endfacet
  facet normal 0 0 1
    outer loop
      vertex 36 2 17.6667
      vertex 45 0 17.6667
      vertex 37.0654 2 17.6667
    endloop
  endfacet
  facet normal 0 0 1
    outer loop
      vertex 36 14.0746 17.6667
      vertex 34.1 2 17.6667
      vertex 36 2 17.6667
    endloop
  endfacet
  facet normal -0 0 1
    outer loop
      vertex 34.1 2 17.6667
      vertex 45 0 17.6667
      vertex 36 2 17.6667
    endloop
  endfacet
  facet normal 0 0 1
    outer loop
      vertex 33.0654 2 17.6667
      vertex 45 0 17.6667
      vertex 34.1 2 17.6667
    endloop
  endfacet
  facet normal 0 0 1
    outer loop
      vertex 32 2 17.6667
      vertex 45 0 17.6667
      vertex 33.0654 2 17.6667
    endloop
  endfacet
  facet normal 0 0 1
    outer loop
      vertex 32 14.0746 17.6667
      vertex 30.1 2 17.6667
      vertex 32 2 17.6667
    endloop
  endfacet
  facet normal -0 0 1
    outer loop
      vertex 30.1 2 17.6667
      vertex 45 0 17.6667
      vertex 32 2 17.6667
    endloop
  endfacet
  facet normal 0 0 1
    outer loop
      vertex 29.0654 2 17.6667
      vertex 45 0 17.6667
      vertex 30.1 2 17.6667
    endloop
  endfacet
  facet normal 0 0 1
    outer loop
      vertex 28 2 17.6667
      vertex 45 0 17.6667
      vertex 29.0654 2 17.6667
    endloop
  endfacet
  facet normal 0 0 1
    outer loop
      vertex 28 14.0746 17.6667
      vertex 26.1 2 17.6667
      vertex 28 2 17.6667
    endloop
  endfacet
  facet normal -0 0 1
    outer loop
      vertex 26.1 2 17.6667
      vertex 45 0 17.6667
      vertex 28 2 17.6667
    endloop
  endfacet
  facet normal 0 0 1
    outer loop
      vertex 25.0654 2 17.6667
      vertex 45 0 17.6667
      vertex 26.1 2 17.6667
    endloop
  endfacet
  facet normal 0 0 1
    outer loop
      vertex 24 2 17.6667
      vertex 45 0 17.6667
      vertex 25.0654 2 17.6667
    endloop
  endfacet
  facet normal 0 0 1
    outer loop
      vertex 24 14.0746 17.6667
      vertex 22.1 2 17.6667
      vertex 24 2 17.6667
    endloop
  endfacet
  facet normal -0 0 1
    outer loop
      vertex 22.1 2 17.6667
      vertex 45 0 17.6667
      vertex 24 2 17.6667
    endloop
  endfacet
  facet normal 0 0 1
    outer loop
      vertex 21.0654 2 17.6667
      vertex 45 0 17.6667
      vertex 22.1 2 17.6667
    endloop
  endfacet
  facet normal 0 0 1
    outer loop
      vertex 0 0 17.6667
      vertex 21.0654 2 17.6667
      vertex 20 2 17.6667
    endloop
  endfacet
  facet normal 0 0 1
    outer loop
      vertex 20 14.0746 17.6667
      vertex 18.1 2 17.6667
      vertex 20 2 17.6667
    endloop
  endfacet
  facet normal 0 0 1
    outer loop
      vertex 0 0 17.6667
      vertex 20 2 17.6667
      vertex 18.1 2 17.6667
    endloop
  endfacet
  facet normal 0 0 1
    outer loop
      vertex 0 0 17.6667
      vertex 18.1 2 17.6667
      vertex 17.0654 2 17.6667
    endloop
  endfacet
  facet normal 0 0 1
    outer loop
      vertex 0 0 17.6667
      vertex 17.0654 2 17.6667
      vertex 16 2 17.6667
    endloop
  endfacet
  facet normal 0 0 1
    outer loop
      vertex 14.1 2 17.6667
      vertex 16 2 17.6667
      vertex 14.1 25.8 17.6667
    endloop
  endfacet
  facet normal 0 0 1
    outer loop
      vertex 0 0 17.6667
      vertex 16 2 17.6667
      vertex 14.1 2 17.6667
    endloop
  endfacet
  facet normal 0 0 1
    outer loop
      vertex 0 0 17.6667
      vertex 14.1 2 17.6667
      vertex 13.0654 2 17.6667
    endloop
  endfacet
  facet normal 0 0 1
    outer loop
      vertex 0 0 17.6667
      vertex 13.0654 2 17.6667
      vertex 12 2 17.6667
    endloop
  endfacet
  facet normal 0 0 1
    outer loop
      vertex 10.1 2 17.6667
      vertex 12 2 17.6667
      vertex 10.1 25.8 17.6667
    endloop
  endfacet
  facet normal 0 0 1
    outer loop
      vertex 0 0 17.6667
      vertex 12 2 17.6667
      vertex 10.1 2 17.6667
    endloop
  endfacet
  facet normal 0 0 1
    outer loop
      vertex 0 0 17.6667
      vertex 10.1 2 17.6667
      vertex 9.06541 2 17.6667
    endloop
  endfacet
  facet normal 0 0 1
    outer loop
      vertex 0 0 17.6667
      vertex 9.06541 2 17.6667
      vertex 8 2 17.6667
    endloop
  endfacet
  facet normal 0 0 1
    outer loop
      vertex 6.1 2 17.6667
      vertex 8 2 17.6667
      vertex 6.1 25.8 17.6667
    endloop
  endfacet
  facet normal 0 0 1
    outer loop
      vertex 0 0 17.6667
      vertex 8 2 17.6667
      vertex 6.1 2 17.6667
    endloop
  endfacet
  facet normal 0 0 1
    outer loop
      vertex 0 0 17.6667
      vertex 6.1 2 17.6667
      vertex 5.06541 2 17.6667
    endloop
  endfacet
  facet normal 0 0 1
    outer loop
      vertex 0 0 17.6667
      vertex 5.06541 2 17.6667
      vertex 4 2 17.6667
    endloop
  endfacet
  facet normal 0 0 1
    outer loop
      vertex 21.0654 2 17.6667
      vertex 0 0 17.6667
      vertex 45 0 17.6667
    endloop
  endfacet
  facet normal 0 0 1
    outer loop
      vertex 0 0 17.6667
      vertex 4 2 17.6667
      vertex 0 27.8 17.6667
    endloop
  endfacet
  facet normal 1 -0 0
    outer loop
      vertex 45 0 17.6667
      vertex 45 27.8 0
      vertex 45 27.8 17.6667
    endloop
  endfacet
  facet normal 1 0 0
    outer loop
      vertex 45 27.8 0
      vertex 45 0 17.6667
      vertex 45 0 0
    endloop
  endfacet
  facet normal 0 0 -1
    outer loop
      vertex 0 0 0
      vertex 45 27.8 0
      vertex 45 0 0
    endloop
  endfacet
  facet normal -0 0 -1
    outer loop
      vertex 45 27.8 0
      vertex 0 0 0
      vertex 0 27.8 0
    endloop
  endfacet
  facet normal 0 -1 0
    outer loop
      vertex 0 0 0
      vertex 45 0 17.6667
      vertex 0 0 17.6667
    endloop
  endfacet
  facet normal 0 -1 -0
    outer loop
      vertex 45 0 17.6667
      vertex 0 0 0
      vertex 45 0 0
    endloop
  endfacet
  facet normal 0 1 -0
    outer loop
      vertex 45 27.8 0
      vertex 0 27.8 17.6667
      vertex 45 27.8 17.6667
    endloop
  endfacet
  facet normal 0 1 0
    outer loop
      vertex 0 27.8 17.6667
      vertex 45 27.8 0
      vertex 0 27.8 0
    endloop
  endfacet
endsolid OpenSCAD_Model
